<svg viewBox="0 0 99 14" xmlns="http://www.w3.org/2000/svg">
<path fill-rule="evenodd" clip-rule="evenodd" d="M56.8777 7L60.3252 0H54.0337L53 2.09787L54.4412 5.1818L56.0028 1.4H57.9132L55.6025 7L57.9132 12.6H56.0028L54.4412 9L53 12L54.0337 14H60.3252L56.8777 7ZM25.9394 12H24.237L23.3858 10.1114H18.8106L17.9594 12H16.3368L21.1514 1.77228L25.9394 12ZM21.1115 5.03078L19.3958 8.83458H22.8139L21.1115 5.03078ZM7.8736 3.35498V2.02498H0V3.35498H3.2053V12H4.6683V3.35498H7.8736ZM9.08546 12H10.5485V8.44888H11.8785L14.2193 12H15.9616L13.3947 8.16958C14.5385 7.71738 15.3897 6.69328 15.3897 5.24358C15.3897 3.26188 13.9932 2.02498 11.9317 2.02498H9.08546V12ZM11.8785 3.35498C13.1287 3.35498 13.8735 4.05988 13.8735 5.24358C13.8735 6.42728 13.1154 7.11888 11.8785 7.11888H10.5485V3.35498H11.8785ZM27.0483 12H30.5861C33.5786 12 35.7332 9.99168 35.7332 7.01248C35.7332 4.01998 33.552 2.02498 30.5462 2.02498H27.0483V12ZM30.6792 3.35498C32.8338 3.35498 34.2303 4.79138 34.2303 7.01248C34.2303 9.23358 32.8338 10.6833 30.6792 10.6833H28.5113V3.35498H30.6792ZM43.389 12H37.2311V2.02498H43.2427V3.35498H38.6941V6.22778H42.6841V7.55778H38.6941V10.67H43.389V12ZM90.8086 4.27267C90.0904 3.67417 89.3057 3.23527 88.4013 3.23527C87.5102 3.23527 86.7388 3.68747 86.7388 4.59187C86.7388 5.19037 87.1112 5.54947 87.7762 5.89527L89.6781 6.87947C90.7155 7.41147 91.3007 8.10307 91.3007 9.16707C91.3007 11.0424 89.8776 12.1197 87.9491 12.1197C86.8984 12.1197 85.8477 11.867 85.0364 11.1754V9.35327C85.9408 10.3109 87.0447 10.7631 87.9491 10.7631C88.8801 10.7631 89.718 10.3508 89.718 9.45967C89.718 8.82127 89.452 8.51537 88.5875 8.04987L86.8851 7.17207C85.861 6.65337 85.2093 5.97507 85.2093 4.68497C85.2093 2.94267 86.6324 1.90527 88.3747 1.90527C89.2525 1.90527 90.0904 2.07817 90.8086 2.57027V4.27267ZM63.3009 12H61.8379V2.02497H64.591C66.7057 2.02497 68.2618 3.39487 68.2618 5.50957C68.2618 7.63757 66.6924 8.99417 64.5511 8.99417H63.3009V12ZM66.7456 5.50957C66.7456 4.23277 65.8944 3.35497 64.6176 3.35497H63.3009V7.66417H64.6176C65.8944 7.66417 66.7456 6.78637 66.7456 5.50957ZM71.2108 12H69.7478V2.02497H72.594C74.6555 2.02497 76.052 3.26187 76.052 5.24357C76.052 6.69327 75.2008 7.71737 74.057 8.16957L76.6239 12H74.8816L72.5408 8.44887H71.2108V12ZM74.5358 5.24357C74.5358 4.05987 73.791 3.35497 72.5408 3.35497H71.2108V7.11887H72.5408C73.7777 7.11887 74.5358 6.42727 74.5358 5.24357ZM77.9434 12H84.1013V10.67H79.4064V7.55777H83.3964V6.22777H79.4064V3.35497H83.955V2.02497H77.9434V12ZM95.6358 3.23527C96.5402 3.23527 97.3249 3.67417 98.0431 4.27267V2.57027C97.3249 2.07817 96.487 1.90527 95.6092 1.90527C93.8669 1.90527 92.4438 2.94267 92.4438 4.68497C92.4438 5.97507 93.0955 6.65337 94.1196 7.17207L95.822 8.04987C96.6865 8.51537 96.9525 8.82127 96.9525 9.45967C96.9525 10.3508 96.1146 10.7631 95.1836 10.7631C94.2792 10.7631 93.1753 10.3109 92.2709 9.35327V11.1754C93.0822 11.867 94.1329 12.1197 95.1836 12.1197C97.1121 12.1197 98.5352 11.0424 98.5352 9.16707C98.5352 8.10307 97.95 7.41147 96.9126 6.87947L95.0107 5.89527C94.3457 5.54947 93.9733 5.19037 93.9733 4.59187C93.9733 3.68747 94.7447 3.23527 95.6358 3.23527ZM54.5529 7L51.1053 0H44.8137L48.2613 7L44.8137 14H51.1053L54.5529 7ZM47.3054 1.39999H49.6483L52.4822 6.99999L49.6483 12.6H47.3054L50.1393 6.99999L47.3054 1.39999Z" fill="#ffffff"/>
</svg>
