<!-- Generated by IcoMoon.io -->
<svg version="1.1" xmlns="http://www.w3.org/2000/svg" width="1024" height="1024" viewBox="0 0 1024 1024">
<g id="icomoon-ignore">
</g>
<path d="M591.088 512l35.827-72.745h-65.379l-10.739 21.805 14.976 32.044 16.231-39.3h19.85l-24.011 58.196 24.011 58.196h-19.85l-16.231-37.41-14.976 31.172 10.739 20.787h65.379l-35.827-72.745zM269.57 563.954h-17.695l-8.844-19.628h-47.544l-8.848 19.628h-16.859l50.031-106.289 49.757 106.289zM219.394 491.532l-17.831 39.528h35.523l-17.687-39.533zM81.82 474.118v-13.821h-81.82v13.821h33.309v89.84h15.204v-89.84h33.309zM94.414 563.954h15.209v-36.9h13.821l24.325 36.9h18.104l-26.671-39.806c11.885-4.701 20.732-15.341 20.732-30.407 0-20.592-14.513-33.444-35.936-33.444h-29.576v103.661zM123.438 474.118c12.994 0 20.732 7.321 20.732 19.628s-7.875 19.492-20.732 19.492h-13.821v-39.118h13.821zM281.091 563.954h36.769c31.098 0 53.485-20.874 53.485-51.831 0-31.098-22.669-51.831-53.904-51.831h-36.346v103.662zM318.827 474.118c22.387 0 36.9 14.931 36.9 38.009s-14.513 38.145-36.9 38.145h-22.529v-76.155h22.529zM450.912 563.954h-63.997v-103.661h62.469v13.821h-47.267v29.853h41.464v13.821h-41.464v32.336h48.793v13.821zM943.7 483.661c-7.465-6.22-15.622-10.784-25.016-10.784-9.257 0-17.277 4.701-17.277 14.095 0 6.22 3.87 9.953 10.776 13.549l19.768 10.23c10.776 5.529 16.859 12.712 16.859 23.769 0 19.492-14.791 30.681-34.826 30.681-10.921 0-21.838-2.628-30.271-9.817v-18.932c9.394 9.948 20.874 14.65 30.271 14.65 9.675 0 18.378-4.292 18.378-13.549 0-6.638-2.764-9.817-11.748-14.649l-17.687-9.126c-10.644-5.384-17.414-12.439-17.414-25.848 0-18.11 14.791-28.885 32.899-28.885 9.12 0 17.828 1.796 25.293 6.911v17.695zM657.835 563.954h-15.204v-103.661h28.612c21.97 0 38.145 14.24 38.145 36.209 0 22.114-16.309 36.214-38.56 36.214h-12.986v31.235zM693.63 496.514c0-13.267-8.848-22.388-22.114-22.388h-13.677v44.783h13.677c13.267 0 22.114-9.12 22.114-22.387zM740.042 563.954h-15.204v-103.661h29.576c21.423 0 35.936 12.854 35.936 33.45 0 15.059-8.848 25.706-20.732 30.407l26.671 39.806h-18.104l-24.325-36.9h-13.821v36.9zM774.59 493.75c0-12.303-7.738-19.628-20.732-19.628h-13.821v39.118h13.821c12.854 0 20.732-7.189 20.732-19.486zM810.004 563.954h63.989v-13.821h-48.79v-32.344h41.464v-13.821h-41.464v-29.858h47.266v-13.821h-62.469v103.661zM993.867 472.872c9.394 0 17.555 4.565 25.015 10.776v-17.687c-7.465-5.111-16.173-6.911-25.293-6.911-18.104 0-32.899 10.784-32.899 28.885 0 13.403 6.774 20.459 17.413 25.842l17.695 9.126c8.984 4.838 11.748 8.020 11.748 14.649 0 9.262-8.703 13.549-18.378 13.549-9.394 0-20.874-4.701-30.271-14.649v18.932c8.43 7.189 19.35 9.817 30.271 9.817 20.041 0 34.832-11.194 34.832-30.68 0-11.057-6.075-18.246-16.864-23.769l-19.765-10.23c-6.911-3.597-10.784-7.329-10.784-13.545 0-9.394 8.020-14.095 17.277-14.095zM566.928 512l-35.827-72.745h-65.379l35.827 72.745-35.827 72.745h65.379l35.827-72.745zM491.613 453.804h24.343l29.452 58.196-29.452 58.196h-24.343l29.449-58.196-29.449-58.196z"></path>
</svg>
